<?xml version="1.0" encoding="UTF-8" standalone="no"?>
<!-- Created with Inkscape (http://www.inkscape.org/) -->

<svg
   xmlns:dc="http://purl.org/dc/elements/1.1/"
   xmlns:cc="http://creativecommons.org/ns#"
   xmlns:rdf="http://www.w3.org/1999/02/22-rdf-syntax-ns#"
   xmlns:svg="http://www.w3.org/2000/svg"
   xmlns="http://www.w3.org/2000/svg"
   xmlns:sodipodi="http://sodipodi.sourceforge.net/DTD/sodipodi-0.dtd"
   xmlns:inkscape="http://www.inkscape.org/namespaces/inkscape"
   width="210mm"
   height="297mm"
   viewBox="0 0 210 297"
   version="1.1"
   id="svg8"
   inkscape:version="0.92.3 (unknown)"
   sodipodi:docname="box_instructions.svg">
  <defs
     id="defs2" />
  <sodipodi:namedview
     id="base"
     pagecolor="#ffffff"
     bordercolor="#666666"
     borderopacity="1.0"
     inkscape:pageopacity="0.0"
     inkscape:pageshadow="2"
     inkscape:zoom="0.98994949"
     inkscape:cx="288.20193"
     inkscape:cy="678.21692"
     inkscape:document-units="mm"
     inkscape:current-layer="layer1"
     showgrid="false"
     inkscape:window-width="1918"
     inkscape:window-height="1059"
     inkscape:window-x="0"
     inkscape:window-y="19"
     inkscape:window-maximized="1" />
  <metadata
     id="metadata5">
    <rdf:RDF>
      <cc:Work
         rdf:about="">
        <dc:format>image/svg+xml</dc:format>
        <dc:type
           rdf:resource="http://purl.org/dc/dcmitype/StillImage" />
        <dc:title />
      </cc:Work>
    </rdf:RDF>
  </metadata>
  <g
     inkscape:label="Layer 1"
     inkscape:groupmode="layer"
     id="layer1">
    <text
       xml:space="preserve"
       style="font-style:normal;font-weight:normal;font-size:29.15531349px;line-height:1.25;font-family:sans-serif;letter-spacing:0px;word-spacing:0px;fill:#000000;fill-opacity:1;stroke:none;stroke-width:0.72888279"
       x="9.8266802"
       y="32.988354"
       id="text817"><tspan
         sodipodi:role="line"
         id="tspan815"
         x="9.8266802"
         y="32.988354"
         style="font-style:italic;font-variant:normal;font-weight:normal;font-stretch:normal;font-family:Miama;-inkscape-font-specification:'Miama Italic';stroke-width:0.72888279">Chceš si fotku stáhnout?</tspan></text>
    <text
       xml:space="preserve"
       style="font-style:normal;font-weight:normal;font-size:15.67878723px;line-height:1.25;font-family:sans-serif;letter-spacing:0px;word-spacing:0px;fill:#000000;fill-opacity:1;stroke:none;stroke-width:0.39196965"
       x="101.23297"
       y="243.78636"
       id="text821-1-7"><tspan
         sodipodi:role="line"
         id="tspan819-1-0"
         x="101.23297"
         y="243.78636"
         style="font-style:normal;font-variant:normal;font-weight:300;font-stretch:normal;font-family:'Brandon Grotesque';-inkscape-font-specification:'Brandon Grotesque Light';text-align:center;text-anchor:middle;stroke-width:0.39196965">1 fotka se tiskne cca 1 minutu</tspan><tspan
         sodipodi:role="line"
         x="101.23297"
         y="264.3219"
         style="font-style:normal;font-variant:normal;font-weight:300;font-stretch:normal;font-family:'Brandon Grotesque';-inkscape-font-specification:'Brandon Grotesque Light';text-align:center;text-anchor:middle;stroke-width:0.39196965"
         id="tspan846">(a 4x vyjede a zajede)</tspan></text>
    <text
       xml:space="preserve"
       style="font-style:normal;font-weight:normal;font-size:15.67878723px;line-height:1.25;font-family:sans-serif;letter-spacing:0px;word-spacing:0px;fill:#000000;fill-opacity:1;stroke:none;stroke-width:0.39196965"
       x="15.933408"
       y="199.21611"
       id="text821-1-7-6"><tspan
         sodipodi:role="line"
         id="tspan819-1-0-5"
         x="15.933408"
         y="199.21611"
         style="font-style:normal;font-variant:normal;font-weight:300;font-stretch:normal;font-family:'Brandon Grotesque';-inkscape-font-specification:'Brandon Grotesque Light';stroke-width:0.39196965">Při focení koukej do objektívu!</tspan></text>
    <text
       xml:space="preserve"
       style="font-style:normal;font-weight:normal;font-size:10.24747181px;line-height:1.25;font-family:sans-serif;letter-spacing:0px;word-spacing:0px;fill:#000000;fill-opacity:1;stroke:none;stroke-width:0.25618678"
       x="14.006705"
       y="62.358101"
       id="text821-1-7-6-2"><tspan
         sodipodi:role="line"
         id="tspan819-1-0-5-6"
         x="14.006705"
         y="62.358101"
         style="font-style:normal;font-variant:normal;font-weight:300;font-stretch:normal;font-family:'Brandon Grotesque';-inkscape-font-specification:'Brandon Grotesque Light';stroke-width:0.25618678"><tspan
   style="font-size:12.34722222px"
   id="tspan1076">1.</tspan> Připoj se k WiFi:</tspan></text>
    <text
       xml:space="preserve"
       style="font-style:normal;font-weight:normal;font-size:11.09717655px;line-height:1.25;font-family:sans-serif;letter-spacing:0px;word-spacing:0px;fill:#000000;fill-opacity:1;stroke:none;stroke-width:0.27742937"
       x="113.40814"
       y="62.094761"
       id="text821-1-7-6-2-5"><tspan
         sodipodi:role="line"
         id="tspan819-1-0-5-6-8"
         x="113.40814"
         y="62.094761"
         style="font-style:normal;font-variant:normal;font-weight:300;font-stretch:normal;font-size:10.23055553px;font-family:'Brandon Grotesque';-inkscape-font-specification:'Brandon Grotesque Light';stroke-width:0.27742937"><tspan
   style="font-size:12.34722222px"
   id="tspan1074">2.</tspan> Otevři v prohlížeči:</tspan></text>
    <text
       xml:space="preserve"
       style="font-style:normal;font-weight:normal;font-size:10.80372143px;line-height:1.25;font-family:sans-serif;letter-spacing:0px;word-spacing:0px;fill:#000000;fill-opacity:1;stroke:none;stroke-width:0.27009299"
       x="21.57972"
       y="149.46669"
       id="text821-1-7-6-2-5-7"><tspan
         sodipodi:role="line"
         id="tspan819-1-0-5-6-8-9"
         x="21.57972"
         y="149.46669"
         style="font-style:normal;font-variant:normal;font-weight:300;font-stretch:normal;font-size:8.81944466px;font-family:'Brandon Grotesque';-inkscape-font-specification:'Brandon Grotesque Light';stroke-width:0.27009299">SSID: Fotobudka</tspan></text>
    <text
       xml:space="preserve"
       style="font-style:normal;font-weight:normal;font-size:10.80372143px;line-height:1.25;font-family:sans-serif;letter-spacing:0px;word-spacing:0px;fill:#000000;fill-opacity:1;stroke:none;stroke-width:0.27009299"
       x="110.7891"
       y="149.05086"
       id="text821-1-7-6-2-5-7-6"><tspan
         sodipodi:role="line"
         id="tspan819-1-0-5-6-8-9-0"
         x="110.7891"
         y="149.05086"
         style="font-style:normal;font-variant:normal;font-weight:300;font-stretch:normal;font-size:8.81944466px;font-family:'Brandon Grotesque';-inkscape-font-specification:'Brandon Grotesque Light';stroke-width:0.27009299">http://192.168.1.100/fotky</tspan></text>
    <g
       id="g995"
       transform="matrix(0.29691432,0,0,0.29691432,14.28212,67.330923)">
      <rect
         id="rect979"
         height="248"
         width="248"
         y="0"
         x="0"
         style="fill:#ffffff;fill-opacity:1" />
      <g
         id="elements">
        <path
           id="path981"
           d="m 8,8 h 8 v 8 H 8 Z m 8,0 h 8 v 8 h -8 z m 8,0 h 8 v 8 h -8 z m 8,0 h 8 v 8 h -8 z m 8,0 h 8 v 8 h -8 z m 8,0 h 8 v 8 h -8 z m 8,0 h 8 v 8 h -8 z m 32,0 h 8 v 8 h -8 z m 16,0 h 8 v 8 h -8 z m 8,0 h 8 v 8 h -8 z m 16,0 h 8 v 8 h -8 z m 8,0 h 8 v 8 h -8 z m 8,0 h 8 v 8 h -8 z m 40,0 h 8 v 8 h -8 z m 8,0 h 8 v 8 h -8 z m 8,0 h 8 v 8 h -8 z m 8,0 h 8 v 8 h -8 z m 8,0 h 8 v 8 h -8 z m 8,0 h 8 v 8 h -8 z m 8,0 h 8 v 8 h -8 z M 8,16 h 8 v 8 H 8 Z m 48,0 h 8 v 8 h -8 z m 16,0 h 8 v 8 h -8 z m 16,0 h 8 v 8 h -8 z m 24,0 h 8 v 8 h -8 z m 8,0 h 8 v 8 h -8 z m 8,0 h 8 v 8 h -8 z m 8,0 h 8 v 8 h -8 z m 24,0 h 8 v 8 h -8 z m 24,0 h 8 v 8 h -8 z m 48,0 h 8 v 8 h -8 z M 8,24 h 8 v 8 H 8 Z m 16,0 h 8 v 8 h -8 z m 8,0 h 8 v 8 h -8 z m 8,0 h 8 v 8 h -8 z m 16,0 h 8 v 8 h -8 z m 48,0 h 8 v 8 h -8 z m 8,0 h 8 v 8 h -8 z m 16,0 h 8 v 8 h -8 z m 56,0 h 8 v 8 h -8 z m 16,0 h 8 v 8 h -8 z m 8,0 h 8 v 8 h -8 z m 8,0 h 8 v 8 h -8 z m 16,0 h 8 v 8 h -8 z M 8,32 h 8 v 8 H 8 Z m 16,0 h 8 v 8 h -8 z m 8,0 h 8 v 8 h -8 z m 8,0 h 8 v 8 h -8 z m 16,0 h 8 v 8 h -8 z m 16,0 h 8 v 8 h -8 z m 8,0 h 8 v 8 h -8 z m 8,0 h 8 v 8 h -8 z m 16,0 h 8 v 8 h -8 z m 16,0 h 8 v 8 h -8 z m 16,0 h 8 v 8 h -8 z m 24,0 h 8 v 8 h -8 z m 8,0 h 8 v 8 h -8 z m 16,0 h 8 v 8 h -8 z m 16,0 h 8 v 8 h -8 z m 8,0 h 8 v 8 h -8 z m 8,0 h 8 v 8 h -8 z m 16,0 h 8 v 8 h -8 z M 8,40 h 8 v 8 H 8 Z m 16,0 h 8 v 8 h -8 z m 8,0 h 8 v 8 h -8 z m 8,0 h 8 v 8 h -8 z m 16,0 h 8 v 8 h -8 z m 24,0 h 8 v 8 h -8 z m 48,0 h 8 v 8 h -8 z m 8,0 h 8 v 8 h -8 z m 8,0 h 8 v 8 h -8 z m 24,0 h 8 v 8 h -8 z m 16,0 h 8 v 8 h -8 z m 16,0 h 8 v 8 h -8 z m 8,0 h 8 v 8 h -8 z m 8,0 h 8 v 8 h -8 z m 16,0 h 8 v 8 h -8 z M 8,48 h 8 v 8 H 8 Z m 48,0 h 8 v 8 h -8 z m 16,0 h 8 v 8 h -8 z m 8,0 h 8 v 8 h -8 z m 16,0 h 8 v 8 h -8 z m 8,0 h 8 v 8 h -8 z m 24,0 h 8 v 8 h -8 z m 8,0 h 8 v 8 h -8 z m 16,0 h 8 v 8 h -8 z m 8,0 h 8 v 8 h -8 z m 8,0 h 8 v 8 h -8 z m 16,0 h 8 v 8 h -8 z m 48,0 h 8 v 8 h -8 z M 8,56 h 8 v 8 H 8 Z m 8,0 h 8 v 8 h -8 z m 8,0 h 8 v 8 h -8 z m 8,0 h 8 v 8 h -8 z m 8,0 h 8 v 8 h -8 z m 8,0 h 8 v 8 h -8 z m 8,0 h 8 v 8 h -8 z m 16,0 h 8 v 8 h -8 z m 16,0 h 8 v 8 h -8 z m 16,0 h 8 v 8 h -8 z m 16,0 h 8 v 8 h -8 z m 16,0 h 8 v 8 h -8 z m 16,0 h 8 v 8 h -8 z m 16,0 h 8 v 8 h -8 z m 16,0 h 8 v 8 h -8 z m 8,0 h 8 v 8 h -8 z m 8,0 h 8 v 8 h -8 z m 8,0 h 8 v 8 h -8 z m 8,0 h 8 v 8 h -8 z m 8,0 h 8 v 8 h -8 z m 8,0 h 8 v 8 h -8 z M 80,64 h 8 v 8 h -8 z m 8,0 h 8 v 8 h -8 z m 8,0 h 8 v 8 h -8 z m 32,0 h 8 v 8 h -8 z m 8,0 h 8 v 8 h -8 z m 24,0 h 8 v 8 h -8 z M 8,72 h 8 v 8 H 8 Z m 8,0 h 8 v 8 h -8 z m 8,0 h 8 v 8 h -8 z m 8,0 h 8 v 8 h -8 z m 8,0 h 8 v 8 h -8 z m 16,0 h 8 v 8 h -8 z m 8,0 h 8 v 8 h -8 z m 8,0 h 8 v 8 h -8 z m 8,0 h 8 v 8 h -8 z m 16,0 h 8 v 8 h -8 z m 40,0 h 8 v 8 h -8 z m 16,0 h 8 v 8 h -8 z m 8,0 h 8 v 8 h -8 z m 8,0 h 8 v 8 h -8 z m 8,0 h 8 v 8 h -8 z m 16,0 h 8 v 8 h -8 z m 16,0 h 8 v 8 h -8 z m 16,0 h 8 v 8 h -8 z M 16,80 h 8 v 8 h -8 z m 8,0 h 8 v 8 h -8 z m 8,0 h 8 v 8 h -8 z m 16,0 h 8 v 8 h -8 z m 40,0 h 8 v 8 h -8 z m 16,0 h 8 v 8 h -8 z m 8,0 h 8 v 8 h -8 z m 16,0 h 8 v 8 h -8 z m 16,0 h 8 v 8 h -8 z m 48,0 h 8 v 8 h -8 z m 8,0 h 8 v 8 h -8 z m 16,0 h 8 v 8 h -8 z m 16,0 h 8 v 8 h -8 z M 16,88 h 8 v 8 h -8 z m 8,0 h 8 v 8 h -8 z m 8,0 h 8 v 8 h -8 z m 8,0 h 8 v 8 h -8 z m 16,0 h 8 v 8 h -8 z m 8,0 h 8 v 8 h -8 z m 8,0 h 8 v 8 h -8 z m 16,0 h 8 v 8 h -8 z m 24,0 h 8 v 8 h -8 z m 8,0 h 8 v 8 h -8 z m 24,0 h 8 v 8 h -8 z m 8,0 h 8 v 8 h -8 z m 16,0 h 8 v 8 h -8 z m 16,0 h 8 v 8 h -8 z m 16,0 h 8 v 8 h -8 z m 8,0 h 8 v 8 h -8 z m 16,0 h 8 v 8 h -8 z M 8,96 h 8 v 8 H 8 Z m 16,0 h 8 v 8 h -8 z m 8,0 h 8 v 8 h -8 z m 8,0 h 8 v 8 h -8 z m 24,0 h 8 v 8 h -8 z m 40,0 h 8 v 8 h -8 z m 8,0 h 8 v 8 h -8 z m 16,0 h 8 v 8 h -8 z m 8,0 h 8 v 8 h -8 z m 8,0 h 8 v 8 h -8 z m 8,0 h 8 v 8 h -8 z m 16,0 h 8 v 8 h -8 z m 8,0 h 8 v 8 h -8 z m 32,0 h 8 v 8 h -8 z m 24,0 h 8 v 8 h -8 z M 8,104 h 8 v 8 H 8 Z m 8,0 h 8 v 8 h -8 z m 32,0 h 8 v 8 h -8 z m 8,0 h 8 v 8 h -8 z m 8,0 h 8 v 8 h -8 z m 16,0 h 8 v 8 h -8 z m 8,0 h 8 v 8 h -8 z m 16,0 h 8 v 8 h -8 z m 16,0 h 8 v 8 h -8 z m 16,0 h 8 v 8 h -8 z m 24,0 h 8 v 8 h -8 z m 8,0 h 8 v 8 h -8 z m 16,0 h 8 v 8 h -8 z m 8,0 h 8 v 8 h -8 z m 8,0 h 8 v 8 h -8 z m 16,0 h 8 v 8 h -8 z m 8,0 h 8 v 8 h -8 z m -208,8 h 8 v 8 h -8 z m 8,0 h 8 v 8 h -8 z m 8,0 h 8 v 8 h -8 z m 16,0 h 8 v 8 h -8 z m 16,0 h 8 v 8 h -8 z m 8,0 h 8 v 8 h -8 z m 8,0 h 8 v 8 h -8 z m 48,0 h 8 v 8 h -8 z m 16,0 h 8 v 8 h -8 z m 24,0 h 8 v 8 h -8 z m 32,0 h 8 v 8 h -8 z m 16,0 h 8 v 8 h -8 z m 16,0 h 8 v 8 h -8 z m -216,8 h 8 v 8 h -8 z m 8,0 h 8 v 8 h -8 z m 8,0 h 8 v 8 h -8 z m 8,0 h 8 v 8 h -8 z m 8,0 h 8 v 8 h -8 z m 8,0 h 8 v 8 h -8 z m 8,0 h 8 v 8 h -8 z m 32,0 h 8 v 8 h -8 z m 8,0 h 8 v 8 h -8 z m 24,0 h 8 v 8 h -8 z m 8,0 h 8 v 8 h -8 z m 16,0 h 8 v 8 h -8 z m 8,0 h 8 v 8 h -8 z m 8,0 h 8 v 8 h -8 z m 16,0 h 8 v 8 h -8 z m 16,0 h 8 v 8 h -8 z m 16,0 h 8 v 8 h -8 z m 8,0 h 8 v 8 h -8 z m -200,8 h 8 v 8 h -8 z m 8,0 h 8 v 8 h -8 z m 8,0 h 8 v 8 h -8 z m 32,0 h 8 v 8 h -8 z m 8,0 h 8 v 8 h -8 z m 8,0 h 8 v 8 h -8 z m 8,0 h 8 v 8 h -8 z m 24,0 h 8 v 8 h -8 z m 8,0 h 8 v 8 h -8 z m 8,0 h 8 v 8 h -8 z m 16,0 h 8 v 8 h -8 z m 8,0 h 8 v 8 h -8 z m 16,0 h 8 v 8 h -8 z m 16,0 h 8 v 8 h -8 z m 16,0 h 8 v 8 h -8 z m 8,0 h 8 v 8 h -8 z m 8,0 h 8 v 8 h -8 z m -184,8 h 8 v 8 h -8 z m 16,0 h 8 v 8 h -8 z m 16,0 h 8 v 8 h -8 z m 8,0 h 8 v 8 h -8 z m 16,0 h 8 v 8 h -8 z m 40,0 h 8 v 8 h -8 z m 24,0 h 8 v 8 h -8 z m 8,0 h 8 v 8 h -8 z m 16,0 h 8 v 8 h -8 z m 8,0 h 8 v 8 h -8 z m 8,0 h 8 v 8 h -8 z m 8,0 h 8 v 8 h -8 z m 16,0 h 8 v 8 h -8 z M 8,144 h 8 v 8 H 8 Z m 16,0 h 8 v 8 h -8 z m 8,0 h 8 v 8 h -8 z m 8,0 h 8 v 8 h -8 z m 40,0 h 8 v 8 h -8 z m 8,0 h 8 v 8 h -8 z m 16,0 h 8 v 8 h -8 z m 8,0 h 8 v 8 h -8 z m 8,0 h 8 v 8 h -8 z m 8,0 h 8 v 8 h -8 z m 16,0 h 8 v 8 h -8 z m 8,0 h 8 v 8 h -8 z m 24,0 h 8 v 8 h -8 z m 16,0 h 8 v 8 h -8 z m 16,0 h 8 v 8 h -8 z m 16,0 h 8 v 8 h -8 z m 8,0 h 8 v 8 h -8 z M 8,152 h 8 v 8 H 8 Z m 16,0 h 8 v 8 h -8 z m 16,0 h 8 v 8 h -8 z m 16,0 h 8 v 8 h -8 z m 24,0 h 8 v 8 h -8 z m 32,0 h 8 v 8 h -8 z m 8,0 h 8 v 8 h -8 z m 24,0 h 8 v 8 h -8 z m 16,0 h 8 v 8 h -8 z m 8,0 h 8 v 8 h -8 z m 16,0 h 8 v 8 h -8 z m 8,0 h 8 v 8 h -8 z m 16,0 h 8 v 8 h -8 z m 16,0 h 8 v 8 h -8 z M 8,160 h 8 v 8 H 8 Z m 32,0 h 8 v 8 h -8 z m 8,0 h 8 v 8 h -8 z m 16,0 h 8 v 8 h -8 z m 8,0 h 8 v 8 h -8 z m 8,0 h 8 v 8 h -8 z m 24,0 h 8 v 8 h -8 z m 8,0 h 8 v 8 h -8 z m 24,0 h 8 v 8 h -8 z m 8,0 h 8 v 8 h -8 z m 8,0 h 8 v 8 h -8 z m 24,0 h 8 v 8 h -8 z m 8,0 h 8 v 8 h -8 z m 48,0 h 8 v 8 h -8 z M 8,168 h 8 v 8 H 8 Z m 16,0 h 8 v 8 h -8 z m 8,0 h 8 v 8 h -8 z m 8,0 h 8 v 8 h -8 z m 16,0 h 8 v 8 h -8 z m 48,0 h 8 v 8 h -8 z m 16,0 h 8 v 8 h -8 z m 48,0 h 8 v 8 h -8 z m 8,0 h 8 v 8 h -8 z m 8,0 h 8 v 8 h -8 z m 8,0 h 8 v 8 h -8 z m 8,0 h 8 v 8 h -8 z m 8,0 h 8 v 8 h -8 z m -136,8 h 8 v 8 h -8 z m 16,0 h 8 v 8 h -8 z m 40,0 h 8 v 8 h -8 z m 32,0 h 8 v 8 h -8 z m 8,0 h 8 v 8 h -8 z m 32,0 h 8 v 8 h -8 z m 8,0 h 8 v 8 h -8 z M 8,184 h 8 v 8 H 8 Z m 8,0 h 8 v 8 h -8 z m 8,0 h 8 v 8 h -8 z m 8,0 h 8 v 8 h -8 z m 8,0 h 8 v 8 h -8 z m 8,0 h 8 v 8 h -8 z m 8,0 h 8 v 8 h -8 z m 16,0 h 8 v 8 h -8 z m 24,0 h 8 v 8 h -8 z m 8,0 h 8 v 8 h -8 z m 24,0 h 8 v 8 h -8 z m 40,0 h 8 v 8 h -8 z m 16,0 h 8 v 8 h -8 z m 16,0 h 8 v 8 h -8 z m 8,0 h 8 v 8 h -8 z M 8,192 h 8 v 8 H 8 Z m 48,0 h 8 v 8 h -8 z m 32,0 h 8 v 8 h -8 z m 8,0 h 8 v 8 h -8 z m 24,0 h 8 v 8 h -8 z m 32,0 h 8 v 8 h -8 z m 16,0 h 8 v 8 h -8 z m 32,0 h 8 v 8 h -8 z M 8,200 h 8 v 8 H 8 Z m 16,0 h 8 v 8 h -8 z m 8,0 h 8 v 8 h -8 z m 8,0 h 8 v 8 h -8 z m 16,0 h 8 v 8 h -8 z m 16,0 h 8 v 8 h -8 z m 8,0 h 8 v 8 h -8 z m 16,0 h 8 v 8 h -8 z m 32,0 h 8 v 8 h -8 z m 8,0 h 8 v 8 h -8 z m 16,0 h 8 v 8 h -8 z m 8,0 h 8 v 8 h -8 z m 8,0 h 8 v 8 h -8 z m 8,0 h 8 v 8 h -8 z m 8,0 h 8 v 8 h -8 z m 8,0 h 8 v 8 h -8 z m 8,0 h 8 v 8 h -8 z m 24,0 h 8 v 8 h -8 z M 8,208 h 8 v 8 H 8 Z m 16,0 h 8 v 8 h -8 z m 8,0 h 8 v 8 h -8 z m 8,0 h 8 v 8 h -8 z m 16,0 h 8 v 8 h -8 z m 16,0 h 8 v 8 h -8 z m 16,0 h 8 v 8 h -8 z m 16,0 h 8 v 8 h -8 z m 8,0 h 8 v 8 h -8 z m 8,0 h 8 v 8 h -8 z m 8,0 h 8 v 8 h -8 z m 8,0 h 8 v 8 h -8 z m 8,0 h 8 v 8 h -8 z m 8,0 h 8 v 8 h -8 z m 16,0 h 8 v 8 h -8 z m 16,0 h 8 v 8 h -8 z m 8,0 h 8 v 8 h -8 z m 8,0 h 8 v 8 h -8 z m 8,0 h 8 v 8 h -8 z m 16,0 h 8 v 8 h -8 z M 8,216 h 8 v 8 H 8 Z m 16,0 h 8 v 8 h -8 z m 8,0 h 8 v 8 h -8 z m 8,0 h 8 v 8 h -8 z m 16,0 h 8 v 8 h -8 z m 16,0 h 8 v 8 h -8 z m 8,0 h 8 v 8 h -8 z m 32,0 h 8 v 8 h -8 z m 8,0 h 8 v 8 h -8 z m 24,0 h 8 v 8 h -8 z m 16,0 h 8 v 8 h -8 z m 8,0 h 8 v 8 h -8 z m 40,0 h 8 v 8 h -8 z m 8,0 h 8 v 8 h -8 z m 8,0 h 8 v 8 h -8 z M 8,224 h 8 v 8 H 8 Z m 48,0 h 8 v 8 h -8 z m 16,0 h 8 v 8 h -8 z m 32,0 h 8 v 8 h -8 z m 8,0 h 8 v 8 h -8 z m 24,0 h 8 v 8 h -8 z m 8,0 h 8 v 8 h -8 z m 8,0 h 8 v 8 h -8 z m 40,0 h 8 v 8 h -8 z m 16,0 h 8 v 8 h -8 z m 16,0 h 8 v 8 h -8 z M 8,232 h 8 v 8 H 8 Z m 8,0 h 8 v 8 h -8 z m 8,0 h 8 v 8 h -8 z m 8,0 h 8 v 8 h -8 z m 8,0 h 8 v 8 h -8 z m 8,0 h 8 v 8 h -8 z m 8,0 h 8 v 8 h -8 z m 16,0 h 8 v 8 h -8 z m 8,0 h 8 v 8 h -8 z m 8,0 h 8 v 8 h -8 z m 16,0 h 8 v 8 h -8 z m 16,0 h 8 v 8 h -8 z m 32,0 h 8 v 8 h -8 z m 8,0 h 8 v 8 h -8 z m 8,0 h 8 v 8 h -8 z m 8,0 h 8 v 8 h -8 z m 32,0 h 8 v 8 h -8 z"
           style="fill:#000000"
           inkscape:connector-curvature="0" />
      </g>
    </g>
    <g
       id="g1072"
       transform="matrix(0.27646198,0,0,0.27646198,117.90803,65.981579)">
      <rect
         id="rect1056"
         height="270"
         width="270"
         y="0"
         x="0"
         style="fill:#ffffff;fill-opacity:1" />
      <g
         id="elements-4">
        <path
           id="path1058"
           d="M 10,10 H 20 V 20 H 10 Z m 10,0 H 30 V 20 H 20 Z m 10,0 H 40 V 20 H 30 Z m 10,0 H 50 V 20 H 40 Z m 10,0 H 60 V 20 H 50 Z m 10,0 H 70 V 20 H 60 Z m 10,0 H 80 V 20 H 70 Z m 30,0 h 10 v 10 h -10 z m 40,0 h 10 v 10 h -10 z m 30,0 h 10 v 10 h -10 z m 20,0 h 10 v 10 h -10 z m 10,0 h 10 v 10 h -10 z m 10,0 h 10 v 10 h -10 z m 10,0 h 10 v 10 h -10 z m 10,0 h 10 v 10 h -10 z m 10,0 h 10 v 10 h -10 z m 10,0 h 10 V 20 H 250 Z M 10,20 H 20 V 30 H 10 Z m 60,0 H 80 V 30 H 70 Z m 20,0 h 10 V 30 H 90 Z m 10,0 h 10 v 10 h -10 z m 20,0 h 10 v 10 h -10 z m 10,0 h 10 v 10 h -10 z m 30,0 h 10 v 10 h -10 z m 10,0 h 10 v 10 h -10 z m 20,0 h 10 v 10 h -10 z m 60,0 h 10 V 30 H 250 Z M 10,30 H 20 V 40 H 10 Z m 20,0 H 40 V 40 H 30 Z m 10,0 H 50 V 40 H 40 Z m 10,0 H 60 V 40 H 50 Z m 20,0 H 80 V 40 H 70 Z m 30,0 h 10 v 10 h -10 z m 10,0 h 10 v 10 h -10 z m 10,0 h 10 v 10 h -10 z m 40,0 h 10 v 10 h -10 z m 10,0 h 10 v 10 h -10 z m 20,0 h 10 v 10 h -10 z m 20,0 h 10 v 10 h -10 z m 10,0 h 10 v 10 h -10 z m 10,0 h 10 v 10 h -10 z m 20,0 h 10 V 40 H 250 Z M 10,40 H 20 V 50 H 10 Z m 20,0 H 40 V 50 H 30 Z m 10,0 H 50 V 50 H 40 Z m 10,0 H 60 V 50 H 50 Z m 20,0 H 80 V 50 H 70 Z m 20,0 h 10 V 50 H 90 Z m 10,0 h 10 v 10 h -10 z m 20,0 h 10 v 10 h -10 z m 40,0 h 10 v 10 h -10 z m 30,0 h 10 v 10 h -10 z m 20,0 h 10 v 10 h -10 z m 10,0 h 10 v 10 h -10 z m 10,0 h 10 v 10 h -10 z m 20,0 h 10 V 50 H 250 Z M 10,50 H 20 V 60 H 10 Z m 20,0 H 40 V 60 H 30 Z m 10,0 H 50 V 60 H 40 Z m 10,0 H 60 V 60 H 50 Z m 20,0 H 80 V 60 H 70 Z m 40,0 h 10 v 10 h -10 z m 20,0 h 10 v 10 h -10 z m 10,0 h 10 v 10 h -10 z m 20,0 h 10 v 10 h -10 z m 30,0 h 10 v 10 h -10 z m 20,0 h 10 v 10 h -10 z m 10,0 h 10 v 10 h -10 z m 10,0 h 10 v 10 h -10 z m 20,0 h 10 V 60 H 250 Z M 10,60 H 20 V 70 H 10 Z m 60,0 H 80 V 70 H 70 Z m 20,0 h 10 V 70 H 90 Z m 20,0 h 10 v 10 h -10 z m 30,0 h 10 v 10 h -10 z m 20,0 h 10 v 10 h -10 z m 30,0 h 10 v 10 h -10 z m 60,0 h 10 V 70 H 250 Z M 10,70 H 20 V 80 H 10 Z m 10,0 H 30 V 80 H 20 Z m 10,0 H 40 V 80 H 30 Z m 10,0 H 50 V 80 H 40 Z m 10,0 H 60 V 80 H 50 Z m 10,0 H 70 V 80 H 60 Z m 10,0 H 80 V 80 H 70 Z m 20,0 h 10 V 80 H 90 Z m 20,0 h 10 v 10 h -10 z m 20,0 h 10 v 10 h -10 z m 20,0 h 10 v 10 h -10 z m 20,0 h 10 v 10 h -10 z m 20,0 h 10 v 10 h -10 z m 10,0 h 10 v 10 h -10 z m 10,0 h 10 v 10 h -10 z m 10,0 h 10 v 10 h -10 z m 10,0 h 10 v 10 h -10 z m 10,0 h 10 v 10 h -10 z m 10,0 h 10 V 80 H 250 Z M 130,80 h 10 v 10 h -10 z m 10,0 h 10 v 10 h -10 z m 20,0 h 10 V 90 H 160 Z M 10,90 h 10 v 10 H 10 Z m 10,0 h 10 v 10 H 20 Z m 10,0 h 10 v 10 H 30 Z m 10,0 h 10 v 10 H 40 Z m 10,0 h 10 v 10 H 50 Z m 20,0 h 10 v 10 H 70 Z m 10,0 h 10 v 10 H 80 Z m 10,0 h 10 v 10 H 90 Z m 10,0 h 10 v 10 h -10 z m 10,0 h 10 v 10 h -10 z m 20,0 h 10 v 10 h -10 z m 20,0 h 10 v 10 h -10 z m 10,0 h 10 v 10 h -10 z m 20,0 h 10 v 10 h -10 z m 20,0 h 10 v 10 h -10 z m 20,0 h 10 v 10 h -10 z m 20,0 h 10 v 10 H 240 Z M 10,100 h 10 v 10 H 10 Z m 10,0 h 10 v 10 H 20 Z m 30,0 h 10 v 10 H 50 Z m 10,0 h 10 v 10 H 60 Z m 30,0 h 10 v 10 H 90 Z m 10,0 h 10 v 10 h -10 z m 40,0 h 10 v 10 h -10 z m 20,0 h 10 v 10 h -10 z m 10,0 h 10 v 10 h -10 z m 10,0 h 10 v 10 h -10 z m 10,0 h 10 v 10 h -10 z m 10,0 h 10 v 10 h -10 z m 40,0 h 10 v 10 H 240 Z M 40,110 h 10 v 10 H 40 Z m 10,0 h 10 v 10 H 50 Z m 10,0 h 10 v 10 H 60 Z m 10,0 h 10 v 10 H 70 Z m 10,0 h 10 v 10 H 80 Z m 10,0 h 10 v 10 H 90 Z m 10,0 h 10 v 10 h -10 z m 20,0 h 10 v 10 h -10 z m 10,0 h 10 v 10 h -10 z m 20,0 h 10 v 10 h -10 z m 30,0 h 10 v 10 h -10 z m 30,0 h 10 v 10 h -10 z m 10,0 h 10 v 10 h -10 z m 20,0 h 10 v 10 h -10 z m 10,0 h 10 v 10 H 250 Z M 10,120 h 10 v 10 H 10 Z m 20,0 h 10 v 10 H 30 Z m 30,0 h 10 v 10 H 60 Z m 20,0 h 10 v 10 H 80 Z m 10,0 h 10 v 10 H 90 Z m 10,0 h 10 v 10 h -10 z m 10,0 h 10 v 10 h -10 z m 10,0 h 10 v 10 h -10 z m 20,0 h 10 v 10 h -10 z m 20,0 h 10 v 10 h -10 z m 20,0 h 10 v 10 h -10 z m 20,0 h 10 v 10 h -10 z m 50,0 h 10 v 10 H 250 Z M 10,130 h 10 v 10 H 10 Z m 20,0 h 10 v 10 H 30 Z m 10,0 h 10 v 10 H 40 Z m 10,0 h 10 v 10 H 50 Z m 20,0 h 10 v 10 H 70 Z m 20,0 h 10 v 10 H 90 Z m 10,0 h 10 v 10 h -10 z m 20,0 h 10 v 10 h -10 z m 30,0 h 10 v 10 h -10 z m 20,0 h 10 v 10 h -10 z m 60,0 h 10 v 10 h -10 z m 10,0 h 10 v 10 h -10 z m 10,0 h 10 v 10 H 250 Z M 10,140 h 10 v 10 H 10 Z m 10,0 h 10 v 10 H 20 Z m 10,0 h 10 v 10 H 30 Z m 10,0 h 10 v 10 H 40 Z m 10,0 h 10 v 10 H 50 Z m 10,0 h 10 v 10 H 60 Z m 20,0 h 10 v 10 H 80 Z m 20,0 h 10 v 10 h -10 z m 10,0 h 10 v 10 h -10 z m 20,0 h 10 v 10 h -10 z m 10,0 h 10 v 10 h -10 z m 10,0 h 10 v 10 h -10 z m 10,0 h 10 v 10 h -10 z m 10,0 h 10 v 10 h -10 z m 10,0 h 10 v 10 h -10 z m 40,0 h 10 v 10 h -10 z m 20,0 h 10 v 10 H 240 Z M 10,150 h 10 v 10 H 10 Z m 40,0 h 10 v 10 H 50 Z m 10,0 h 10 v 10 H 60 Z m 10,0 h 10 v 10 H 70 Z m 10,0 h 10 v 10 H 80 Z m 60,0 h 10 v 10 h -10 z m 10,0 h 10 v 10 h -10 z m 20,0 h 10 v 10 h -10 z m 20,0 h 10 v 10 h -10 z m 20,0 h 10 v 10 h -10 z m 10,0 h 10 v 10 h -10 z m 20,0 h 10 v 10 h -10 z m 10,0 h 10 v 10 H 250 Z M 10,160 h 10 v 10 H 10 Z m 50,0 h 10 v 10 H 60 Z m 20,0 h 10 v 10 H 80 Z m 10,0 h 10 v 10 H 90 Z m 10,0 h 10 v 10 h -10 z m 30,0 h 10 v 10 h -10 z m 10,0 h 10 v 10 h -10 z m 30,0 h 10 v 10 h -10 z m 10,0 h 10 v 10 h -10 z m 10,0 h 10 v 10 h -10 z m 30,0 h 10 v 10 h -10 z m 30,0 h 10 v 10 H 250 Z M 10,170 h 10 v 10 H 10 Z m 30,0 h 10 v 10 H 40 Z m 20,0 h 10 v 10 H 60 Z m 10,0 h 10 v 10 H 70 Z m 60,0 h 10 v 10 h -10 z m 10,0 h 10 v 10 h -10 z m 10,0 h 10 v 10 h -10 z m 10,0 h 10 v 10 h -10 z m 10,0 h 10 v 10 h -10 z m 10,0 h 10 v 10 h -10 z m 10,0 h 10 v 10 h -10 z m 10,0 h 10 v 10 h -10 z m 10,0 h 10 v 10 h -10 z m 10,0 h 10 v 10 h -10 z m 10,0 h 10 v 10 H 230 Z M 90,180 h 10 v 10 H 90 Z m 20,0 h 10 v 10 h -10 z m 30,0 h 10 v 10 h -10 z m 20,0 h 10 v 10 h -10 z m 10,0 h 10 v 10 h -10 z m 40,0 h 10 v 10 h -10 z m 10,0 h 10 v 10 H 220 Z M 10,190 h 10 v 10 H 10 Z m 10,0 h 10 v 10 H 20 Z m 10,0 h 10 v 10 H 30 Z m 10,0 h 10 v 10 H 40 Z m 10,0 h 10 v 10 H 50 Z m 10,0 h 10 v 10 H 60 Z m 10,0 h 10 v 10 H 70 Z m 20,0 h 10 v 10 H 90 Z m 10,0 h 10 v 10 h -10 z m 20,0 h 10 v 10 h -10 z m 10,0 h 10 v 10 h -10 z m 30,0 h 10 v 10 h -10 z m 10,0 h 10 v 10 h -10 z m 20,0 h 10 v 10 h -10 z m 20,0 h 10 v 10 h -10 z m 10,0 h 10 v 10 h -10 z m 20,0 h 10 v 10 h -10 z m 10,0 h 10 v 10 H 250 Z M 10,200 h 10 v 10 H 10 Z m 60,0 h 10 v 10 H 70 Z m 30,0 h 10 v 10 h -10 z m 10,0 h 10 v 10 h -10 z m 10,0 h 10 v 10 h -10 z m 20,0 h 10 v 10 h -10 z m 30,0 h 10 v 10 h -10 z m 40,0 h 10 v 10 h -10 z m 10,0 h 10 v 10 h -10 z m 10,0 h 10 v 10 h -10 z m 20,0 h 10 v 10 H 250 Z M 10,210 h 10 v 10 H 10 Z m 20,0 h 10 v 10 H 30 Z m 10,0 h 10 v 10 H 40 Z m 10,0 h 10 v 10 H 50 Z m 20,0 h 10 v 10 H 70 Z m 20,0 h 10 v 10 H 90 Z m 30,0 h 10 v 10 h -10 z m 10,0 h 10 v 10 h -10 z m 20,0 h 10 v 10 h -10 z m 20,0 h 10 v 10 h -10 z m 10,0 h 10 v 10 h -10 z m 10,0 h 10 v 10 h -10 z m 10,0 h 10 v 10 h -10 z m 10,0 h 10 v 10 h -10 z m 10,0 h 10 v 10 h -10 z m 20,0 h 10 v 10 h -10 z m 10,0 h 10 v 10 H 250 Z M 10,220 h 10 v 10 H 10 Z m 20,0 h 10 v 10 H 30 Z m 10,0 h 10 v 10 H 40 Z m 10,0 h 10 v 10 H 50 Z m 20,0 h 10 v 10 H 70 Z m 20,0 h 10 v 10 H 90 Z m 10,0 h 10 v 10 h -10 z m 10,0 h 10 v 10 h -10 z m 20,0 h 10 v 10 h -10 z m 20,0 h 10 v 10 h -10 z m 10,0 h 10 v 10 h -10 z m 10,0 h 10 v 10 h -10 z m 30,0 h 10 v 10 h -10 z m 10,0 h 10 v 10 h -10 z m 20,0 h 10 v 10 h -10 z m 20,0 h 10 v 10 H 250 Z M 10,230 h 10 v 10 H 10 Z m 20,0 h 10 v 10 H 30 Z m 10,0 h 10 v 10 H 40 Z m 10,0 h 10 v 10 H 50 Z m 20,0 h 10 v 10 H 70 Z m 20,0 h 10 v 10 H 90 Z m 10,0 h 10 v 10 h -10 z m 30,0 h 10 v 10 h -10 z m 10,0 h 10 v 10 h -10 z m 10,0 h 10 v 10 h -10 z m 20,0 h 10 v 10 h -10 z m 10,0 h 10 v 10 h -10 z m 10,0 h 10 v 10 h -10 z m 10,0 h 10 v 10 h -10 z m 10,0 h 10 v 10 h -10 z m 20,0 h 10 v 10 h -10 z m 20,0 h 10 v 10 H 250 Z M 10,240 h 10 v 10 H 10 Z m 60,0 h 10 v 10 H 70 Z m 20,0 h 10 v 10 H 90 Z m 30,0 h 10 v 10 h -10 z m 10,0 h 10 v 10 h -10 z m 10,0 h 10 v 10 h -10 z m 20,0 h 10 v 10 h -10 z m 10,0 h 10 v 10 h -10 z m 20,0 h 10 v 10 h -10 z m 10,0 h 10 v 10 h -10 z m 10,0 h 10 v 10 h -10 z m 20,0 h 10 v 10 h -10 z m 20,0 h 10 v 10 H 250 Z M 10,250 h 10 v 10 H 10 Z m 10,0 h 10 v 10 H 20 Z m 10,0 h 10 v 10 H 30 Z m 10,0 h 10 v 10 H 40 Z m 10,0 h 10 v 10 H 50 Z m 10,0 h 10 v 10 H 60 Z m 10,0 h 10 v 10 H 70 Z m 20,0 h 10 v 10 H 90 Z m 50,0 h 10 v 10 h -10 z m 10,0 h 10 v 10 h -10 z m 30,0 h 10 v 10 h -10 z m 10,0 h 10 v 10 h -10 z m 10,0 h 10 v 10 h -10 z m 20,0 h 10 v 10 h -10 z m 10,0 h 10 v 10 h -10 z m 10,0 h 10 v 10 h -10 z m 10,0 h 10 v 10 h -10 z"
           style="fill:#000000"
           inkscape:connector-curvature="0" />
      </g>
    </g>
  </g>
</svg>
